<?xml version="1.0" encoding="utf-8"?>
<!-- Generator: Adobe Illustrator 24.1.1, SVG Export Plug-In . SVG Version: 6.00 Build 0)  -->
<svg version="1.1" id="Lag_1" xmlns="http://www.w3.org/2000/svg" xmlns:xlink="http://www.w3.org/1999/xlink" x="0px" y="0px"
	 viewBox="0 0 841.89 214.95" style="enable-background:new 0 0 841.89 214.95;" xml:space="preserve">
<style type="text/css">
	.st0{clip-path:url(#SVGID_2_);}
	.st1{clip-path:url(#SVGID_4_);fill:#F07F25;}
	.st2{clip-path:url(#SVGID_6_);}
	.st3{clip-path:url(#SVGID_8_);fill:#FFFFFF;}
	.st4{clip-path:url(#SVGID_8_);}
</style>
<g>
	<path d="M379.88,73.79c3.2,0,5.8-2.6,5.8-5.8c0-3.2-2.6-5.8-5.8-5.8c-3.2,0-5.8,2.6-5.8,5.8
		C374.07,71.19,376.67,73.79,379.88,73.79z"/>
	<path d="M237.07,58.2c0,6.94,0.35,10.06,1.99,12.01c1,1.17,2.34,1.56,3.69,1.56c1.52,0,2.9-0.61,3.86-2.04
		c1.17-1.78,1.26-3.6,1.26-13.44v-1.65c0-2.99-0.17-5.98-0.22-7.59h9.93c0,0.95,0.04,4.25,0.04,7.67v1.99
		c0,8.32-0.48,13.44-3.77,17.39c-2.64,3.21-6.85,4.86-11.66,4.86c-3.56,0-8.84-0.61-12.14-5.42c-2.12-3.16-2.86-6.37-2.86-16.91
		V54.3c0-1.99,0.04-5.59,0.04-6.59h10.1c-0.17,1.13-0.26,3.6-0.26,7.54V58.2z"/>
	<path d="M260.53,78.28c0.26-3.08,1.3-25.28,1.73-31.04l0.43-0.26c6.16,4.51,20.07,15.05,21.59,16.17c0-2.38-0.13-14-0.09-15.87
		l8.84,0.22c-0.26,3.38-0.65,9.84-1.04,16.17c-0.35,6.29-0.65,12.44-0.78,15.26l-0.43,0.22c-5.2-3.38-20.85-15.78-21.5-16.3
		c0,1.78,0.04,14.31,0.09,15.74L260.53,78.28z"/>
	<path d="M321.13,71.56c0,1.65,0.09,5.51,0.09,6.42c-1.08,0.3-5.16,1.04-9.58,1c-12.62-0.17-17.91-6.07-17.91-12.88
		c0-5.29,4.6-15.48,22.37-19.38l1.99,8.5c-5.85,0.78-14.13,4.47-14.13,10.41c0,4.29,4.55,5.98,7.85,5.9l0.04-3.47
		c0-1.26-0.09-2.43-0.09-3.64h9.41c-0.04,1.69-0.04,2.69-0.04,3.99V71.56z"/>
	<path d="M325.94,59.2c0-0.91-0.04-10.49-0.22-11.71c7.98,0,12.62,0.22,16.65,0.78c11.36,1.56,13.53,7.46,13.53,10.97
		c0,13.66-16.22,19.25-30.22,19.25c0.17-1.99,0.26-12.75,0.26-13.92V59.2z M335.48,70.6c4.25-0.69,10.1-3.77,10.1-9.84
		c0-5.12-5.2-6.33-10.1-6.33V70.6z"/>
	<path d="M398.87,76.46c0.74-1.73,9.49-24.41,12.01-29.92h0.43c2.64,4.29,9.06,14.91,10.41,17.13c1.69-2.56,7.8-12.7,10.1-16.43
		h0.43c2.99,6.42,11.71,26.1,12.88,28.49l-8.76,3.9c-1.39-3.47-5.51-14.48-5.98-15.65c-0.52,0.78-6.07,9.32-9.32,13.87h-0.43
		c-3.34-5.03-7.89-12.4-8.58-13.7c-0.74,2.25-3.86,13.44-4.64,15.48L398.87,76.46z"/>
	<path d="M444.56,71.64c4.21,0.13,8.8-1.04,8.8-3.08c0-0.87-0.74-1.39-4.25-3.38c-2.73-1.56-5.9-3.73-5.9-7.37
		c0-4.86,6.46-10.15,17.43-11.1l1.17,7.24c-5.42,0-8.15,0.91-8.15,2.69c0,1.04,1.39,1.69,4.21,3.08c2.3,1.13,6.03,3.08,6.03,6.98
		c0,4.77-4.99,10.84-18.17,12.36L444.56,71.64z"/>
	<path d="M475.66,64.58c0,1.65,0.13,12.62,0.22,13.27h-9.67c0.17-1.04,0.09-14.78,0.09-15.69v-3.56c0-1.3-0.09-10.71-0.22-11.53
		c5.94,0,11.97,0.09,15.87,0.61c6.42,0.82,9.89,3.34,9.89,7.33c0,3.55-2.21,6.29-5.59,8.67c1.3,1.47,7.93,8.19,9.06,9.58l-7.93,5.98
		c-1-1.65-9.41-13.83-10.58-15.74c1.91-1.13,4.99-3.51,4.99-6.42c0-2.04-1.43-3.99-6.11-4.03V64.58z"/>
	<path d="M507.12,65.41c0,4.34,0.13,12.1,0.17,13.09h-10.06c0.09-1.91,0.13-12.05,0.13-13.18v-4.68c0-0.74-0.13-11.88-0.13-12.92
		h10.06c-0.04,0.78-0.17,7.8-0.17,13.01V65.41z"/>
	<path d="M510.45,78.12c0.26-3.08,1.3-25.28,1.73-31.04l0.43-0.26c6.16,4.51,20.07,15.05,21.59,16.17c0-2.38-0.13-14-0.09-15.87
		l8.84,0.22c-0.26,3.38-0.65,9.84-1.04,16.17c-0.35,6.29-0.65,12.44-0.78,15.26l-0.43,0.22c-5.2-3.38-20.85-15.78-21.5-16.3
		c0,1.78,0.04,14.31,0.09,15.74L510.45,78.12z"/>
	<path d="M572.71,71.55c0,1.65,0.09,5.51,0.09,6.42c-1.08,0.3-5.16,1.04-9.58,1c-12.62-0.17-17.91-6.07-17.91-12.88
		c0-5.29,4.6-15.48,22.37-19.38l1.99,8.5c-5.85,0.78-14.13,4.47-14.13,10.41c0,4.29,4.55,5.98,7.85,5.9l0.04-3.47
		c0-1.26-0.09-2.43-0.09-3.64h9.41c-0.04,1.69-0.04,2.69-0.04,3.99V71.55z"/>
	<path d="M595.96,79.25c-1.56,0-17.21-0.43-19.47-0.43c0.13-2.3,0.13-11.58,0.13-12.57v-5.81c0-0.69-0.09-11.14-0.13-12.4
		c2.43,0,17-0.65,18.6-0.78l0.17,7.15c-1.6,0-8.41,0.22-9.19,0.22v5.72c0.87,0,5.85-0.22,7.76-0.39l0.13,6.94
		c-1.17,0-6.94-0.17-7.89-0.17v5.16c1.13,0,7.67,0.09,9.71-0.09L595.96,79.25z"/>
	<path d="M599.07,78c0.26-3.08,1.3-25.28,1.73-31.04l0.43-0.26c6.16,4.51,20.07,15.04,21.59,16.17c0-2.38-0.13-14-0.09-15.87
		l8.84,0.22c-0.26,3.38-0.65,9.84-1.04,16.17c-0.35,6.29-0.65,12.44-0.78,15.26l-0.43,0.22c-5.2-3.38-20.86-15.78-21.51-16.3
		c0,1.78,0.04,14.31,0.09,15.74L599.07,78z"/>
	<polygon points="375.41,61.33 359,29.88 352.43,38.63 	"/>
	<path d="M377.03,47.55c-1.05-1.62-1.69-2.61-1.78-5.15c-0.03-0.81,0.06-1.88,0.14-2.6c-2.78,0.54-5.38,1.59-7.69,3.08l3.54,7.2
		C372.92,48.83,374.89,47.95,377.03,47.55z"/>
	<path d="M375.35,17.21c0,0,11.77,0,12.23,0c-1.03,1.12-3.27,5.79-3.27,9.52c0,3.24,1.49,4.39,1.49,7.1c0,4.02-4.52,6.01-3.17,9.71
		c1.12,3.08,2.73,6.88-3.83,13.35c4.25-7.14-1.57-9.74-1.85-14.11c-0.33-5.29,2.03-6.72,2.03-8.86
		C378.99,29.25,372.64,24.21,375.35,17.21z"/>
	<g>
		<path d="M398.35,49.83l-5.8,5.99c0.75,1.72,1.17,3.61,1.17,5.61c0,7.8-6.32,14.12-14.12,14.12c-7.8,0-14.12-6.32-14.12-14.12
			c0-2.31,0.57-4.49,1.55-6.41l-5.95-5.55c-2.23,3.45-3.53,7.55-3.53,11.96c0,12.18,9.87,22.05,22.05,22.05
			c12.18,0,22.05-9.87,22.05-22.05C401.65,57.17,400.44,53.2,398.35,49.83z"/>
		<path d="M385.19,48.46c1.51,0.65,2.89,1.57,4.07,2.68l3.41-7.47c-2.32-1.71-4.98-2.98-7.86-3.67c-0.34,0.45-0.65,1.05-0.8,1.62
			c-0.28,1.13,0.84,2.98,1.08,4.29C385.15,46.25,385.29,47.5,385.19,48.46z"/>
	</g>
	<polygon points="400.21,31.68 410.8,33.34 386.06,61.06 	"/>
	<g>
		<g>
			<path d="M467.48,83.83l-0.26,1.23h1.67l-0.22,1.05h-1.67l-0.54,2.56h-1.3l1.25-5.88h3.9l-0.22,1.05H467.48z"/>
			<path d="M472.99,85.38c-0.15-0.1-0.29-0.15-0.42-0.15c-0.22,0-0.41,0.07-0.59,0.22c-0.19,0.15-0.3,0.34-0.34,0.55l-0.57,2.67
				h-1.14l0.97-4.57h1.14l-0.07,0.35c0.33-0.3,0.69-0.45,1.09-0.45c0.26,0,0.46,0.06,0.61,0.17L472.99,85.38z"/>
			<path d="M473.38,88.67l0.97-4.56h1.23l-0.97,4.56H473.38z M475.55,83.65c-0.16,0.13-0.34,0.19-0.52,0.19
				c-0.18,0-0.32-0.06-0.43-0.19c-0.11-0.13-0.14-0.29-0.11-0.47c0.04-0.19,0.14-0.35,0.3-0.48c0.16-0.13,0.34-0.19,0.52-0.19
				c0.18,0,0.33,0.06,0.43,0.19c0.11,0.13,0.14,0.29,0.1,0.48C475.81,83.36,475.71,83.51,475.55,83.65z"/>
			<path d="M478.13,88.64c-0.33,0.07-0.63,0.1-0.87,0.1c-0.87,0-1.21-0.48-1-1.46l0.46-2.17h-0.54l0.22-1.02h0.54l0.16-0.75
				l1.27-0.57l-0.28,1.32h1.06l-0.22,1.02h-1.06l-0.35,1.66c-0.14,0.67-0.01,0.99,0.4,0.99c0.17,0,0.39-0.05,0.66-0.14L478.13,88.64
				z"/>
			<path d="M479.13,88.67l0.97-4.56h1.23l-0.97,4.56H479.13z M481.3,83.65c-0.16,0.13-0.34,0.19-0.52,0.19
				c-0.18,0-0.33-0.06-0.43-0.19c-0.11-0.13-0.14-0.29-0.1-0.47c0.04-0.19,0.14-0.35,0.3-0.48c0.16-0.13,0.34-0.19,0.52-0.19
				c0.18,0,0.32,0.06,0.43,0.19c0.11,0.13,0.14,0.29,0.1,0.48C481.56,83.36,481.46,83.51,481.3,83.65z"/>
			<path d="M484.46,88.66l0.09-0.41c-0.25,0.28-0.64,0.42-1.18,0.42c-0.63,0-1.1-0.19-1.41-0.59c-0.31-0.4-0.41-0.92-0.28-1.55
				c0.14-0.65,0.44-1.21,0.92-1.69c0.51-0.52,1.09-0.78,1.72-0.78c0.38,0,0.73,0.1,1.04,0.32l0.28-1.31l1.32-0.44l-1.28,6.04H484.46
				z M485.06,85.85c-0.02-0.09-0.1-0.24-0.24-0.43c-0.15-0.13-0.32-0.2-0.51-0.2c-0.33,0-0.59,0.07-0.77,0.2
				c-0.29,0.22-0.49,0.58-0.6,1.11c-0.07,0.34-0.04,0.6,0.12,0.8c0.15,0.2,0.41,0.3,0.75,0.3c0.19,0,0.4-0.09,0.61-0.27
				c0.15-0.12,0.29-0.28,0.42-0.45L485.06,85.85z"/>
			<path d="M488.88,88.68c-0.2,0.03-0.42,0.05-0.68,0.05c-0.42,0-0.95-0.14-1.61-0.43l0.64-0.97c0.34,0.24,0.78,0.35,1.32,0.35
				c0.48,0,0.75-0.13,0.8-0.41c0.03-0.13-0.11-0.24-0.41-0.32c-0.22-0.05-0.56-0.13-0.99-0.3c-0.62-0.23-0.84-0.67-0.72-1.25
				c0.11-0.5,0.41-0.88,0.93-1.15c0.43-0.22,0.91-0.33,1.45-0.33c0.63,0,1.12,0.13,1.46,0.4l-0.61,1.07
				c-0.18-0.11-0.38-0.23-0.62-0.31c-0.18-0.06-0.4-0.09-0.68-0.09c-0.34,0-0.53,0.12-0.58,0.36c-0.03,0.13,0.12,0.25,0.44,0.34
				c0.53,0.14,0.86,0.24,0.97,0.29c0.55,0.26,0.77,0.68,0.64,1.26C490.48,88.05,489.89,88.54,488.88,88.68z"/>
			<path d="M491.85,86.03l0.22-1.05h1.98l-0.22,1.05H491.85z"/>
		</g>
		<g>
			<path d="M502,88.1c-0.51,0.44-1.12,0.66-1.83,0.66c-0.72,0-1.24-0.22-1.55-0.65c-0.32-0.44-0.4-1.01-0.25-1.72
				c0.14-0.68,0.48-1.24,1.01-1.69c0.54-0.45,1.14-0.68,1.8-0.68c0.68,0,1.18,0.23,1.52,0.68c0.35,0.45,0.44,1.02,0.3,1.69
				C502.84,87.09,502.51,87.65,502,88.1z M500.94,85.11c-0.34,0-0.62,0.13-0.86,0.4c-0.2,0.23-0.35,0.52-0.42,0.88
				c-0.18,0.84,0.07,1.26,0.76,1.26c0.43,0,0.76-0.15,0.97-0.46c0.13-0.19,0.23-0.46,0.3-0.8
				C501.87,85.54,501.62,85.11,500.94,85.11z"/>
			<path d="M506.9,89.6c-0.56,0.64-1.21,0.95-1.95,0.95l0.07-1.11c0.38-0.05,0.68-0.16,0.9-0.35c0.23-0.18,0.38-0.43,0.44-0.74
				c-0.21,0.13-0.38,0.22-0.52,0.25c-0.11,0.03-0.29,0.04-0.53,0.04c-0.3,0-0.58-0.05-0.85-0.14c-0.27-0.1-0.45-0.24-0.56-0.4
				c-0.28-0.42-0.35-1.02-0.17-1.83c0.13-0.61,0.44-1.13,0.93-1.54c0.49-0.42,1.05-0.63,1.65-0.63c0.37,0,0.69,0.08,0.95,0.25
				l0.05-0.25h1.24l-0.76,3.59C507.63,88.47,507.33,89.11,506.9,89.6z M506.94,85.86c0.03-0.15-0.02-0.3-0.15-0.43
				c-0.14-0.13-0.27-0.2-0.43-0.2c-0.34,0-0.63,0.09-0.88,0.29c-0.25,0.19-0.4,0.45-0.48,0.79c-0.18,0.83,0.04,1.24,0.67,1.24
				c0.22,0,0.43-0.06,0.66-0.19c0.22-0.13,0.35-0.27,0.38-0.41L506.94,85.86z"/>
		</g>
		<g>
			<path d="M515.65,88.65l0.08-0.39c-0.39,0.31-0.85,0.46-1.37,0.46c-0.5,0-0.87-0.14-1.12-0.44c-0.24-0.3-0.31-0.7-0.21-1.2
				l0.64-2.99h1.23l-0.54,2.58c-0.05,0.26-0.03,0.47,0.07,0.64c0.1,0.16,0.28,0.25,0.52,0.25c0.26,0,0.49-0.08,0.7-0.25
				c0.22-0.17,0.36-0.38,0.41-0.64l0.55-2.58h1.23l-0.97,4.56H515.65z"/>
			<path d="M520.9,88.67l0.55-2.58c0.05-0.26,0.03-0.46-0.07-0.62c-0.11-0.17-0.28-0.26-0.53-0.26c-0.26,0-0.49,0.08-0.7,0.25
				c-0.22,0.17-0.36,0.38-0.41,0.63l-0.55,2.58h-1.23l0.97-4.56h1.23l-0.08,0.39c0.4-0.31,0.86-0.46,1.38-0.46
				c0.5,0,0.87,0.15,1.11,0.45c0.24,0.3,0.31,0.7,0.21,1.2l-0.63,2.98H520.9z"/>
			<path d="M526.66,89.6c-0.56,0.64-1.21,0.95-1.94,0.95l0.07-1.11c0.38-0.05,0.68-0.16,0.9-0.35c0.23-0.18,0.38-0.43,0.44-0.74
				c-0.21,0.13-0.38,0.22-0.52,0.25c-0.11,0.03-0.29,0.04-0.53,0.04c-0.3,0-0.58-0.05-0.85-0.14c-0.27-0.1-0.45-0.24-0.56-0.4
				c-0.28-0.42-0.35-1.02-0.17-1.83c0.13-0.61,0.44-1.13,0.93-1.54c0.49-0.42,1.04-0.63,1.65-0.63c0.37,0,0.69,0.08,0.95,0.25
				l0.05-0.25h1.24l-0.76,3.59C527.4,88.47,527.1,89.11,526.66,89.6z M526.71,85.86c0.03-0.15-0.02-0.3-0.16-0.43
				c-0.14-0.13-0.27-0.2-0.43-0.2c-0.34,0-0.63,0.09-0.88,0.29c-0.25,0.19-0.4,0.45-0.48,0.79c-0.18,0.83,0.04,1.24,0.67,1.24
				c0.22,0,0.43-0.06,0.66-0.19c0.22-0.13,0.35-0.27,0.38-0.41L526.71,85.86z"/>
			<path d="M531.4,88.66l0.09-0.41c-0.25,0.28-0.64,0.42-1.18,0.42c-0.63,0-1.1-0.19-1.41-0.59c-0.32-0.4-0.41-0.92-0.28-1.55
				c0.14-0.65,0.44-1.21,0.92-1.69c0.51-0.52,1.09-0.78,1.72-0.78c0.38,0,0.73,0.1,1.04,0.32l0.28-1.31l1.32-0.44l-1.28,6.04H531.4z
				 M531.99,85.85c-0.02-0.09-0.1-0.24-0.24-0.43c-0.15-0.13-0.32-0.2-0.51-0.2c-0.33,0-0.59,0.07-0.77,0.2
				c-0.29,0.22-0.49,0.58-0.6,1.11c-0.07,0.34-0.04,0.6,0.12,0.8c0.15,0.2,0.41,0.3,0.75,0.3c0.19,0,0.4-0.09,0.61-0.27
				c0.15-0.12,0.29-0.28,0.42-0.45L531.99,85.85z"/>
			<path d="M537.55,88.1c-0.51,0.44-1.12,0.66-1.83,0.66c-0.72,0-1.23-0.22-1.55-0.65c-0.32-0.44-0.4-1.01-0.25-1.72
				c0.14-0.68,0.48-1.24,1-1.69c0.54-0.45,1.14-0.68,1.8-0.68c0.68,0,1.18,0.23,1.52,0.68c0.35,0.45,0.44,1.02,0.3,1.69
				C538.39,87.09,538.07,87.65,537.55,88.1z M536.5,85.11c-0.34,0-0.62,0.13-0.86,0.4c-0.2,0.23-0.35,0.52-0.42,0.88
				c-0.18,0.84,0.07,1.26,0.76,1.26c0.43,0,0.76-0.15,0.97-0.46c0.13-0.19,0.23-0.46,0.3-0.8C537.42,85.54,537.17,85.11,536.5,85.11
				z"/>
			<path d="M544.73,88.67l0.55-2.58c0.05-0.26,0.03-0.46-0.07-0.62c-0.1-0.17-0.27-0.26-0.53-0.26c-0.42,0-0.75,0.18-0.98,0.55
				c-0.05,0.09-0.08,0.15-0.09,0.2l-0.58,2.71h-1.24l0.55-2.58c0.05-0.26,0.03-0.46-0.07-0.62c-0.1-0.17-0.27-0.26-0.53-0.26
				c-0.26,0-0.49,0.08-0.7,0.25c-0.22,0.17-0.36,0.38-0.41,0.63l-0.55,2.58h-1.22l0.97-4.56h1.22l-0.08,0.39
				c0.4-0.31,0.86-0.46,1.38-0.46c0.48,0,0.84,0.14,1.1,0.43c0.49-0.27,1.01-0.4,1.57-0.4c0.54,0,0.97,0.13,1.26,0.39
				c0.34,0.3,0.44,0.71,0.33,1.23l-0.63,2.98H544.73z"/>
			<path d="M549.14,88.68c-0.2,0.03-0.42,0.05-0.68,0.05c-0.42,0-0.95-0.14-1.61-0.43l0.64-0.97c0.34,0.24,0.78,0.35,1.32,0.35
				c0.48,0,0.75-0.13,0.8-0.41c0.03-0.13-0.11-0.24-0.41-0.32c-0.21-0.05-0.56-0.13-0.99-0.3c-0.62-0.23-0.84-0.67-0.72-1.25
				c0.11-0.5,0.41-0.88,0.93-1.15c0.42-0.22,0.91-0.33,1.45-0.33c0.63,0,1.12,0.13,1.46,0.4l-0.61,1.07
				c-0.18-0.11-0.38-0.23-0.62-0.31c-0.18-0.06-0.4-0.09-0.68-0.09c-0.34,0-0.53,0.12-0.58,0.36c-0.03,0.13,0.12,0.25,0.44,0.34
				c0.53,0.14,0.86,0.24,0.97,0.29c0.55,0.26,0.77,0.68,0.64,1.26C550.74,88.05,550.15,88.54,549.14,88.68z"/>
			<path d="M554.27,88.67l-0.82-2.02l-0.56,0.45l-0.33,1.57h-1.23l1.17-5.51l1.36-0.6l-0.64,3.01l1.57-1.28h1.72l-1.93,1.59
				l1.12,2.8H554.27z"/>
			<path d="M556.59,88.67l1.17-5.48l1.38-0.64l-1.3,6.12H556.59z"/>
			<path d="M561.86,88.65l0.08-0.39c-0.39,0.31-0.85,0.46-1.37,0.46c-0.5,0-0.87-0.14-1.12-0.44c-0.24-0.3-0.31-0.7-0.21-1.2
				l0.64-2.99h1.23l-0.54,2.58c-0.05,0.26-0.03,0.47,0.07,0.64c0.1,0.16,0.28,0.25,0.52,0.25c0.26,0,0.49-0.08,0.7-0.25
				c0.22-0.17,0.36-0.38,0.41-0.64l0.55-2.58h1.23l-0.97,4.56H561.86z"/>
			<path d="M568.18,87.92c-0.49,0.49-1.1,0.75-1.81,0.75c-0.52,0-0.84-0.14-0.97-0.42l-0.09,0.41h-1.24l1.19-5.6l1.33-0.44
				l-0.37,1.75c0.43-0.23,0.82-0.34,1.2-0.34c0.6,0,1.03,0.2,1.29,0.61c0.29,0.46,0.35,1.09,0.19,1.88
				C568.79,87.1,568.55,87.56,568.18,87.92z M567.55,85.32c-0.12-0.09-0.33-0.14-0.6-0.14c-0.19,0-0.39,0.07-0.6,0.2
				c-0.14,0.1-0.29,0.24-0.42,0.43l-0.22,1.06c0.02,0.08,0.09,0.24,0.23,0.45c0.13,0.18,0.3,0.27,0.5,0.27
				c0.34,0,0.62-0.09,0.86-0.29s0.4-0.47,0.47-0.81C567.88,85.9,567.81,85.51,567.55,85.32z"/>
			<path d="M573.45,87.92c-0.49,0.49-1.1,0.75-1.81,0.75c-0.52,0-0.84-0.14-0.97-0.42l-0.09,0.41h-1.24l1.19-5.6l1.33-0.44
				l-0.37,1.75c0.43-0.23,0.82-0.34,1.2-0.34c0.6,0,1.03,0.2,1.29,0.61c0.29,0.46,0.35,1.09,0.19,1.88
				C574.06,87.1,573.81,87.56,573.45,87.92z M572.82,85.32c-0.12-0.09-0.33-0.14-0.61-0.14c-0.19,0-0.39,0.07-0.6,0.2
				c-0.14,0.1-0.29,0.24-0.42,0.43l-0.22,1.06c0.02,0.08,0.09,0.24,0.23,0.45c0.12,0.18,0.3,0.27,0.5,0.27
				c0.34,0,0.62-0.09,0.86-0.29c0.24-0.19,0.4-0.47,0.47-0.81C573.15,85.9,573.08,85.51,572.82,85.32z"/>
			<path d="M576.13,86.95c-0.05,0.17,0.01,0.33,0.17,0.47c0.14,0.12,0.28,0.2,0.45,0.24c0.09,0.01,0.18,0.02,0.28,0.02
				c0.36,0,0.65-0.11,0.86-0.35l0.74,0.66c-0.23,0.24-0.52,0.43-0.86,0.56c-0.34,0.13-0.66,0.2-0.98,0.2
				c-0.71,0-1.21-0.22-1.55-0.64c-0.33-0.43-0.42-0.99-0.27-1.7c0.16-0.76,0.49-1.35,1-1.79c0.5-0.44,1.12-0.66,1.87-0.66
				c0.73,0,1.23,0.31,1.49,0.93c0.2,0.46,0.2,1.14,0.01,2.05H576.13z M578.19,85.29c-0.15-0.19-0.36-0.29-0.64-0.29
				c-0.28,0-0.53,0.09-0.78,0.28c-0.25,0.19-0.4,0.42-0.46,0.7h2C578.38,85.7,578.34,85.47,578.19,85.29z"/>
			<path d="M582.9,85.38c-0.15-0.1-0.28-0.15-0.42-0.15c-0.21,0-0.41,0.07-0.59,0.22c-0.19,0.15-0.3,0.34-0.34,0.55l-0.57,2.67
				h-1.14l0.97-4.57h1.14l-0.07,0.35c0.33-0.3,0.69-0.45,1.09-0.45c0.26,0,0.46,0.06,0.61,0.17L582.9,85.38z"/>
		</g>
		<path d="M586.41,88.67l0.97-4.56h1.23l-0.97,4.56H586.41z M588.58,83.65c-0.16,0.13-0.34,0.19-0.52,0.19
			c-0.18,0-0.33-0.06-0.43-0.19c-0.1-0.13-0.14-0.29-0.1-0.47c0.04-0.19,0.14-0.35,0.3-0.48c0.16-0.13,0.34-0.19,0.52-0.19
			c0.18,0,0.32,0.06,0.43,0.19c0.1,0.13,0.14,0.29,0.1,0.48C588.84,83.36,588.74,83.51,588.58,83.65z"/>
		<g>
			<path d="M598.26,87.35c-0.44,0.48-0.99,0.84-1.62,1.07c-0.49,0.17-1.01,0.26-1.57,0.26h-2l1.25-5.88h2.06
				c0.7,0,1.28,0.13,1.76,0.41c0.52,0.31,0.85,0.76,0.98,1.35c0.08,0.36,0.08,0.74-0.01,1.14
				C598.99,86.31,598.69,86.86,598.26,87.35z M597.37,84.4c-0.33-0.32-0.82-0.47-1.47-0.47h-0.45l-0.76,3.6h0.45
				c0.74,0,1.35-0.2,1.84-0.58c0.37-0.3,0.61-0.7,0.72-1.2C597.82,85.15,597.71,84.71,597.37,84.4z"/>
			<path d="M602.27,88.65l0.06-0.29c-0.47,0.22-0.92,0.32-1.36,0.32c-0.51,0-0.88-0.13-1.11-0.41c-0.23-0.28-0.29-0.66-0.18-1.16
				c0.12-0.55,0.4-0.97,0.84-1.26c0.39-0.26,0.87-0.39,1.44-0.39c0.37,0,0.68,0.08,0.94,0.24c0.11-0.54-0.16-0.81-0.77-0.81
				c-0.42,0-0.76,0.1-1.02,0.32l-0.27-0.77c0.2-0.17,0.48-0.31,0.81-0.4c0.29-0.08,0.57-0.12,0.84-0.12c0.56,0,1,0.13,1.3,0.39
				c0.35,0.29,0.47,0.7,0.35,1.24l-0.66,3.11H602.27z M602.67,86.74c0.02-0.08-0.04-0.15-0.18-0.22c-0.14-0.06-0.3-0.09-0.46-0.09
				c-0.65,0-1.01,0.22-1.1,0.65c-0.08,0.36,0.16,0.53,0.73,0.53c0.11,0,0.28-0.04,0.49-0.1c0.25-0.08,0.39-0.14,0.4-0.22
				L602.67,86.74z"/>
			<path d="M607.48,88.67l0.55-2.58c0.05-0.26,0.03-0.46-0.07-0.62c-0.11-0.17-0.28-0.26-0.53-0.26c-0.26,0-0.49,0.08-0.7,0.25
				c-0.22,0.17-0.36,0.38-0.41,0.63l-0.55,2.58h-1.23l0.97-4.56h1.23l-0.08,0.39c0.4-0.31,0.86-0.46,1.38-0.46
				c0.5,0,0.87,0.15,1.11,0.45c0.24,0.3,0.31,0.7,0.21,1.2l-0.63,2.98H607.48z"/>
			<path d="M615.53,88.67l0.55-2.58c0.05-0.26,0.03-0.46-0.07-0.62c-0.1-0.17-0.27-0.26-0.53-0.26c-0.42,0-0.75,0.18-0.98,0.55
				c-0.05,0.09-0.08,0.15-0.1,0.2l-0.57,2.71h-1.24l0.55-2.58c0.05-0.26,0.03-0.46-0.07-0.62c-0.1-0.17-0.27-0.26-0.53-0.26
				s-0.49,0.08-0.7,0.25c-0.22,0.17-0.36,0.38-0.41,0.63l-0.55,2.58h-1.22l0.97-4.56h1.22l-0.08,0.39c0.4-0.31,0.86-0.46,1.38-0.46
				c0.48,0,0.84,0.14,1.1,0.43c0.49-0.27,1.01-0.4,1.57-0.4c0.54,0,0.97,0.13,1.26,0.39c0.34,0.3,0.44,0.71,0.33,1.23l-0.63,2.98
				H615.53z"/>
			<path d="M620.63,88.65l0.06-0.29c-0.47,0.22-0.92,0.32-1.36,0.32c-0.51,0-0.88-0.13-1.11-0.41c-0.23-0.28-0.29-0.66-0.18-1.16
				c0.12-0.55,0.4-0.97,0.84-1.26c0.39-0.26,0.87-0.39,1.44-0.39c0.37,0,0.68,0.08,0.94,0.24c0.11-0.54-0.16-0.81-0.77-0.81
				c-0.42,0-0.76,0.1-1.02,0.32l-0.27-0.77c0.2-0.17,0.48-0.31,0.81-0.4c0.29-0.08,0.57-0.12,0.84-0.12c0.56,0,1,0.13,1.3,0.39
				c0.35,0.29,0.47,0.7,0.35,1.24l-0.66,3.11H620.63z M621.02,86.74c0.02-0.08-0.04-0.15-0.18-0.22c-0.14-0.06-0.3-0.09-0.46-0.09
				c-0.65,0-1.01,0.22-1.1,0.65c-0.08,0.36,0.16,0.53,0.73,0.53c0.11,0,0.28-0.04,0.49-0.1c0.25-0.08,0.39-0.14,0.4-0.22
				L621.02,86.74z"/>
			<path d="M625.94,85.38c-0.15-0.1-0.28-0.15-0.42-0.15c-0.22,0-0.42,0.07-0.59,0.22c-0.19,0.15-0.3,0.34-0.34,0.55l-0.57,2.67
				h-1.14l0.97-4.57H625l-0.07,0.35c0.33-0.3,0.69-0.45,1.09-0.45c0.26,0,0.46,0.06,0.61,0.17L625.94,85.38z"/>
			<path d="M629.23,88.67l-0.82-2.02l-0.56,0.45l-0.33,1.57h-1.23l1.17-5.51l1.36-0.6l-0.64,3.01l1.57-1.28h1.72l-1.93,1.59
				l1.12,2.8H629.23z"/>
		</g>
	</g>
</g>
<g id="Artwork_1_5_">
	<g>
		<defs>
			<rect id="SVGID_1_" x="18.93" y="183.25" width="79.21" height="15.41"/>
		</defs>
		<clipPath id="SVGID_2_">
			<use xlink:href="#SVGID_1_"  style="overflow:visible;"/>
		</clipPath>
		<g class="st0">
			<defs>
				<rect id="SVGID_3_" x="18.93" y="183.25" width="79.21" height="15.41"/>
			</defs>
			<clipPath id="SVGID_4_">
				<use xlink:href="#SVGID_3_"  style="overflow:visible;"/>
			</clipPath>
			<path class="st1" d="M98.14,183.25H18.93v15.41h79.21V183.25z M30.02,185.64l-1.46,10.63h-1.98l0.86-5.26l-1.95,3.39h-0.4
				l-0.77-3.39l-1.06,5.26H21.3l2.13-10.63l1.07-0.03l1.4,5.31l3.01-5.31L30.02,185.64z M37.29,185.64l-1.37,7.67
				c-0.2,1.08-0.57,1.87-1.12,2.37c-0.55,0.5-1.25,0.75-2.11,0.75c-0.36,0-0.69-0.04-1.01-0.13c-0.31-0.09-0.59-0.22-0.82-0.41
				c-0.23-0.18-0.42-0.42-0.55-0.7c-0.13-0.28-0.2-0.63-0.2-1.04c0-0.11,0.01-0.23,0.02-0.38c0.01-0.14,0.03-0.28,0.05-0.42
				l1.38-7.71h2.05l-1.4,7.79c-0.01,0.06-0.02,0.13-0.04,0.22c-0.02,0.09-0.02,0.19-0.02,0.3c0,0.16,0.04,0.32,0.13,0.46
				c0.09,0.14,0.28,0.21,0.57,0.21c0.32,0,0.54-0.12,0.68-0.35c0.13-0.23,0.23-0.51,0.29-0.83l1.4-7.8H37.29z M42.99,186.21
				l-0.74,1.74c-0.52-0.44-1-0.67-1.46-0.67c-0.35,0-0.61,0.1-0.78,0.3c-0.17,0.2-0.26,0.43-0.26,0.69c0,0.32,0.1,0.64,0.31,0.97
				c0.21,0.33,0.44,0.67,0.7,1.03c0.15,0.2,0.3,0.42,0.45,0.65c0.15,0.23,0.29,0.47,0.41,0.72c0.12,0.26,0.22,0.52,0.3,0.8
				c0.08,0.28,0.12,0.56,0.12,0.86c0,0.43-0.07,0.84-0.2,1.23c-0.13,0.38-0.33,0.72-0.58,1c-0.25,0.29-0.57,0.51-0.95,0.67
				c-0.38,0.16-0.81,0.24-1.31,0.24c-0.48,0-0.95-0.09-1.43-0.26c-0.48-0.17-0.9-0.41-1.28-0.7l0.68-1.78
				c0.32,0.26,0.64,0.48,0.95,0.66c0.32,0.18,0.66,0.27,1.01,0.27c0.31,0,0.57-0.1,0.78-0.3c0.21-0.2,0.32-0.49,0.32-0.86
				c0-0.32-0.1-0.64-0.31-0.96c-0.2-0.32-0.43-0.66-0.69-1.01c-0.15-0.2-0.3-0.42-0.45-0.65c-0.15-0.23-0.29-0.47-0.42-0.72
				c-0.12-0.25-0.23-0.52-0.3-0.8c-0.08-0.28-0.12-0.58-0.12-0.9c0-0.45,0.07-0.86,0.22-1.23c0.15-0.36,0.36-0.67,0.63-0.93
				c0.27-0.26,0.58-0.45,0.95-0.59c0.36-0.14,0.76-0.2,1.18-0.2c0.5,0,0.93,0.08,1.31,0.23C42.41,185.87,42.73,186.04,42.99,186.21
				 M46.37,185.64l-1.92,10.63h-2.05l1.92-10.63H46.37z M53.59,185.64l-3.05,5.23l1.21,5.39h-2.17l-0.88-5.06l-0.91,5.06h-2.05
				l1.92-10.63h2.05l-0.86,4.74l2.53-4.74H53.59z M58.73,186.21l-0.74,1.74c-0.52-0.44-1-0.67-1.46-0.67c-0.35,0-0.61,0.1-0.78,0.3
				c-0.17,0.2-0.26,0.43-0.26,0.69c0,0.32,0.1,0.64,0.31,0.97c0.21,0.33,0.44,0.67,0.7,1.03c0.15,0.2,0.3,0.42,0.45,0.65
				c0.15,0.23,0.29,0.47,0.41,0.72c0.12,0.26,0.22,0.52,0.3,0.8c0.08,0.28,0.12,0.56,0.12,0.86c0,0.43-0.07,0.84-0.2,1.23
				c-0.13,0.38-0.33,0.72-0.58,1s-0.57,0.51-0.95,0.67c-0.38,0.16-0.81,0.24-1.31,0.24c-0.48,0-0.95-0.09-1.43-0.26
				c-0.48-0.17-0.9-0.41-1.28-0.7l0.68-1.78c0.32,0.26,0.64,0.48,0.95,0.66c0.32,0.18,0.65,0.27,1.01,0.27c0.31,0,0.57-0.1,0.78-0.3
				c0.21-0.2,0.32-0.49,0.32-0.86c0-0.32-0.1-0.64-0.31-0.96c-0.2-0.32-0.43-0.66-0.69-1.01c-0.15-0.2-0.3-0.42-0.45-0.65
				c-0.15-0.23-0.29-0.47-0.42-0.72c-0.12-0.25-0.23-0.52-0.31-0.8c-0.08-0.28-0.12-0.58-0.12-0.9c0-0.45,0.07-0.86,0.22-1.23
				c0.15-0.36,0.36-0.67,0.63-0.93c0.27-0.26,0.58-0.45,0.95-0.59c0.36-0.14,0.76-0.2,1.18-0.2c0.5,0,0.93,0.08,1.31,0.23
				C58.15,185.87,58.47,186.04,58.73,186.21 M64.9,185.64l-0.33,1.87h-1.59l-1.59,8.76h-2.06l1.59-8.76h-1.59l0.33-1.87H64.9z
				 M69.89,196.27h-2.01l-0.07-1.77h-1.82l-0.7,1.77h-1.98l4.39-10.66h1.65L69.89,196.27z M77.6,188.41c0,0.33-0.04,0.66-0.12,0.99
				c-0.08,0.33-0.2,0.65-0.35,0.95c-0.15,0.3-0.34,0.58-0.57,0.84c-0.22,0.26-0.48,0.48-0.77,0.67l0.54,4.41h-2.13l-0.28-3.8h-0.19
				h-0.2c-0.04,0-0.11,0-0.19-0.01l-0.68,3.81h-2.05l1.91-10.51c0.21-0.05,0.47-0.1,0.77-0.14c0.31-0.05,0.67-0.07,1.09-0.07
				c0.54,0,1,0.08,1.41,0.22c0.4,0.15,0.74,0.35,1.01,0.61c0.27,0.26,0.48,0.56,0.61,0.91C77.54,187.63,77.6,188.01,77.6,188.41
				 M84.03,185.64l-0.33,1.87h-1.59l-1.59,8.76h-2.05l1.59-8.76h-1.59l0.33-1.87H84.03z M89.56,185.64l-0.34,1.86h-2.58l-0.43,2.41
				h2.2l-0.33,1.8h-2.2l-0.49,2.71h2.58l-0.33,1.86h-4.63l1.92-10.63H89.56z M95.69,188.41c0,0.33-0.04,0.66-0.12,0.99
				c-0.08,0.33-0.2,0.65-0.35,0.95c-0.15,0.3-0.34,0.58-0.57,0.84c-0.22,0.26-0.48,0.48-0.77,0.67l0.54,4.41H92.3l-0.28-3.8h-0.19
				h-0.2c-0.04,0-0.11,0-0.19-0.01l-0.68,3.81h-2.05l1.91-10.51c0.21-0.05,0.47-0.1,0.77-0.14c0.31-0.05,0.67-0.07,1.09-0.07
				c0.54,0,1,0.08,1.41,0.22c0.4,0.15,0.74,0.35,1.01,0.61c0.27,0.26,0.48,0.56,0.61,0.91C95.62,187.63,95.69,188.01,95.69,188.41
				 M93.5,189.42c0.08-0.28,0.13-0.56,0.13-0.86c0-0.37-0.09-0.66-0.28-0.87c-0.19-0.21-0.44-0.32-0.76-0.32
				c-0.08,0-0.13,0-0.16,0.01c-0.03,0.01-0.05,0.01-0.06,0.01l-0.63,3.42h0.03c0.01,0,0.02,0,0.04,0.01c0.01,0,0.03,0.01,0.04,0.01
				c0.27,0,0.51-0.06,0.73-0.19c0.22-0.13,0.41-0.29,0.57-0.5C93.29,189.94,93.41,189.7,93.5,189.42 M75.41,189.42
				c0.08-0.28,0.13-0.56,0.13-0.86c0-0.37-0.09-0.66-0.28-0.87c-0.19-0.21-0.44-0.32-0.76-0.32c-0.08,0-0.13,0-0.16,0.01
				c-0.03,0.01-0.05,0.01-0.06,0.01l-0.63,3.42h0.03c0.01,0,0.02,0,0.04,0.01c0.01,0,0.03,0.01,0.04,0.01
				c0.27,0,0.51-0.06,0.73-0.19c0.22-0.13,0.41-0.29,0.57-0.5C75.2,189.94,75.32,189.7,75.41,189.42 M66.68,192.73h1.1v-3.1
				L66.68,192.73z"/>
		</g>
	</g>
</g>
<g>
	<g>
		<polygon points="717.7,190.17 714.62,185.03 714.62,197.76 717.7,197.76 		"/>
		<polygon points="725.65,197.76 717.59,184.23 714.66,184.23 722.71,197.75 		"/>
		<polygon points="722.59,191.81 725.67,196.95 725.67,184.22 722.59,184.22 		"/>
	</g>
	<g>
		<path d="M732.84,184.19c-1.67,0.06-3.1,0.72-4.3,1.97c-1.27,1.33-1.9,2.93-1.9,4.81c0,1.88,0.63,3.48,1.9,4.8
			c1.2,1.26,2.63,1.92,4.3,1.98v-2.46c-0.79-0.09-1.47-0.51-2.05-1.26c-0.66-0.84-0.99-1.86-0.99-3.05c0-1.2,0.33-2.22,0.99-3.06
			c0.58-0.74,1.26-1.15,2.05-1.25V184.19z"/>
		<path d="M733.34,197.76c1.69-0.06,3.15-0.72,4.36-1.99c1.27-1.32,1.9-2.92,1.9-4.8c0-1.88-0.63-3.48-1.9-4.81
			c-1.22-1.27-2.67-1.93-4.36-1.98v2.48c0.88,0.04,1.62,0.47,2.25,1.27c0.66,0.84,0.99,1.86,0.99,3.06c0,1.19-0.33,2.21-0.99,3.05
			c-0.62,0.81-1.37,1.23-2.25,1.28V197.76z"/>
	</g>
	<g>
		<rect x="740.54" y="184.19" width="3.08" height="13.57"/>
		<path d="M750.19,191.26c0.61-0.8,0.92-1.73,0.92-2.79v-0.18c0-0.93-0.29-1.81-0.87-2.65c-0.82-0.99-2.14-1.48-3.96-1.48h-2.17
			v2.41h2.17c0.94,0.04,1.52,0.56,1.74,1.58v0.24c0,0.93-0.48,1.57-1.45,1.91h-2.47v2.46c1.47,0,2.4,0.07,2.78,0.2
			c0.4,0.24,0.66,0.56,0.77,0.96c0.26,1.7,0.42,2.6,0.48,2.69c0.25,0.77,0.44,1.16,0.58,1.17h3.22c-0.3-0.34-0.49-0.64-0.58-0.9
			c-0.14-0.34-0.32-1.15-0.53-2.44l-0.09-0.48c-0.07-0.7-0.15-1.11-0.25-1.21c-0.22-0.47-0.45-0.82-0.69-1.07
			C749.95,191.55,750.08,191.41,750.19,191.26z"/>
	</g>
	<g>
		<rect x="752.76" y="184.19" width="3.08" height="13.57"/>
		<path d="M760.24,193.61c-0.21,1.06-0.79,1.6-1.74,1.62l-2.17,0.03v2.5h2.17c1.82,0,3.14-0.51,3.96-1.54
			c0.58-0.88,0.87-1.8,0.87-2.76v-5.01c0-0.96-0.29-1.88-0.87-2.76c-0.82-1.03-2.14-1.54-3.96-1.54h-2.17v2.5l2.17,0.03
			c0.94,0.02,1.52,0.56,1.74,1.62V193.61z"/>
	</g>
	<g>
		<rect x="764.32" y="184.22" width="3.13" height="13.54"/>
		<polygon points="767.87,188.78 767.87,192.14 772.67,197.76 776.37,197.76 776.37,197.72 769.93,190.37 776.08,184.27 
			776.08,184.22 772.14,184.22 		"/>
	</g>
	<g>
		<rect x="777.36" y="184.19" width="3.08" height="13.57"/>
		<path d="M787.01,191.26c0.61-0.8,0.92-1.73,0.92-2.79v-0.18c0-0.93-0.29-1.81-0.87-2.65c-0.82-0.99-2.14-1.48-3.96-1.48h-2.17
			v2.41h2.17c0.94,0.04,1.52,0.56,1.74,1.58v0.24c0,0.93-0.48,1.57-1.45,1.91h-2.47v2.46c1.47,0,2.4,0.07,2.78,0.2
			c0.4,0.24,0.66,0.56,0.77,0.96c0.26,1.7,0.42,2.6,0.48,2.69c0.25,0.77,0.44,1.16,0.58,1.17h3.22c-0.3-0.34-0.49-0.64-0.58-0.9
			c-0.14-0.34-0.32-1.15-0.53-2.44l-0.09-0.48c-0.07-0.7-0.15-1.11-0.25-1.21c-0.22-0.47-0.45-0.82-0.69-1.07
			C786.77,191.55,786.9,191.41,787.01,191.26z"/>
	</g>
	<g>
		<polygon points="793.52,184.22 789.58,195.8 789.58,197.76 792.32,197.76 795.25,187.35 795.29,187.35 796.69,192.33 
			796.69,192.38 794.39,192.38 793.66,194.88 797.41,194.88 798.32,197.76 801.81,197.76 797.02,184.22 		"/>
	</g>
	<g>
		<rect x="802.42" y="184.19" width="3.08" height="13.57"/>
		<rect x="806.02" y="184.22" width="6.35" height="2.49"/>
		<rect x="806.04" y="189.35" width="5.83" height="2.49"/>
	</g>
	<g>
		<rect x="813.26" y="184.25" width="10.09" height="2.49"/>
		<rect x="816.84" y="187.24" width="3.08" height="10.49"/>
	</g>
</g>
<g>
	<defs>
		<rect id="SVGID_5_" x="349.94" y="151.33" width="121.13" height="46.43"/>
	</defs>
	<clipPath id="SVGID_6_">
		<use xlink:href="#SVGID_5_"  style="overflow:visible;"/>
	</clipPath>
	<g class="st2">
		<defs>
			<rect id="SVGID_7_" x="349.94" y="151.33" width="121.13" height="46.43"/>
		</defs>
		<clipPath id="SVGID_8_">
			<use xlink:href="#SVGID_7_"  style="overflow:visible;"/>
		</clipPath>
		<polyline class="st3" points="398.44,160.63 398.44,160.63 398.44,160.63 		"/>
		<path class="st4" d="M425.19,153.6h-0.38c-1.9,3.23-4.98,5.64-8.4,6.74c-6.95,2.23-14.66-1.63-19.56-9.01h-0.66
			c-0.82,9.52-6.29,17.59-14.46,23.17v0.5c2.61-0.92,6.48-0.77,8.35,0.36c3.02,1.82,4.56,5.6,4.63,10.31h0.71
			c2.99-12.27,11.63-20.95,21.61-20.24c8.14,0.57,13.59,5.53,16.49,14.78h0.41c0.85-1.09,2.7-2.72,4.65-2.95v-0.33
			C432.49,172.53,426.3,163.2,425.19,153.6"/>
		<path class="st4" d="M349.94,187.35h3.59c1.98,0,3.59,1.57,3.59,3.51c0,1.09-0.49,2.05-1.32,2.71l1.84,4.05h-3.07l-1.42-3.36
			h-0.39v3.36h-2.82V187.35z M352.76,189.85v1.98h0.65c0.5,0,0.89-0.45,0.89-0.98c0-0.53-0.39-1.01-0.89-1.01H352.76z"/>
		<path class="st4" d="M357.98,192.52c0-4.19,1.77-5.29,3.96-5.29c2.18,0,3.96,1.09,3.96,5.29c0,4.17-1.78,5.24-3.96,5.24
			C359.75,197.76,357.98,196.69,357.98,192.52 M363.09,192.52c0-2.34-0.62-2.77-1.15-2.77c-0.53,0-1.15,0.43-1.15,2.77
			c0,2.31,0.6,2.74,1.15,2.74C362.49,195.26,363.09,194.83,363.09,192.52"/>
		<path class="st4" d="M369.38,194.11c0,0.83,0.29,1.09,0.68,1.09c0.45,0,0.69-0.33,0.69-0.66c0-0.5-0.6-0.75-1.25-1.01
			c-1.11-0.43-2.74-1.09-2.74-3.06c0-1.88,1.51-3.25,3.36-3.25c1.75,0,3.23,1.22,3.23,3.26h-2.67c0-0.56-0.2-0.86-0.59-0.86
			c-0.4,0-0.56,0.33-0.56,0.56c0,0.4,0.5,0.62,1.22,0.92c1.24,0.52,2.83,1.22,2.83,3.2c0,1.91-1.47,3.45-3.55,3.45
			c-1.75,0-3.45-1.08-3.45-3.63L369.38,194.11z"/>
		<polygon class="st4" points="379.82,191.44 382.54,197.62 379.46,197.62 378.02,193.81 377.34,194.88 377.34,197.62 
			374.53,197.62 374.53,187.35 377.34,187.35 377.34,191.17 379.47,187.35 382.33,187.35 		"/>
		<rect x="383.15" y="187.35" class="st4" width="2.82" height="10.27"/>
		<polygon class="st4" points="393.64,197.62 387.46,197.62 387.46,187.35 390.28,187.35 390.28,195.13 393.64,195.13 		"/>
		<path class="st4" d="M398.26,187.35c2.3,0,3.95,1.09,3.95,5.16c0,4.02-1.65,5.11-3.95,5.11h-3.62v-10.27H398.26z M397.46,189.85
			v5.29h0.8c0.7,0,1.14-0.46,1.14-2.63c0-2.2-0.43-2.66-1.14-2.66H397.46z"/>
		<polygon class="st4" points="409.99,197.62 403.26,197.62 403.26,187.35 409.72,187.35 409.72,189.85 406.07,189.85 
			406.07,191.24 408.6,191.24 408.6,193.6 406.07,193.6 406.07,195.13 409.99,195.13 		"/>
		<polygon class="st4" points="420.06,193.84 417.09,193.84 417.09,197.62 414.27,197.62 414.27,187.35 420.9,187.35 420.9,189.85 
			417.09,189.85 417.09,191.47 420.06,191.47 		"/>
		<polygon class="st4" points="428.59,197.62 421.85,197.62 421.85,187.35 428.31,187.35 428.31,189.85 424.66,189.85 
			424.66,191.24 427.19,191.24 427.19,193.6 424.66,193.6 424.66,195.13 428.59,195.13 		"/>
		<path class="st4" d="M431.87,194.11c0,0.83,0.29,1.09,0.68,1.09c0.45,0,0.69-0.33,0.69-0.66c0-0.5-0.6-0.75-1.25-1.01
			c-1.11-0.43-2.74-1.09-2.74-3.06c0-1.88,1.51-3.25,3.36-3.25c1.75,0,3.23,1.22,3.23,3.26h-2.67c0-0.56-0.2-0.86-0.59-0.86
			c-0.4,0-0.56,0.33-0.56,0.56c0,0.4,0.5,0.62,1.22,0.92c1.24,0.52,2.83,1.22,2.83,3.2c0,1.91-1.47,3.45-3.55,3.45
			c-1.75,0-3.45-1.08-3.45-3.63L431.87,194.11z"/>
		<polygon class="st4" points="436.28,187.35 443.51,187.35 443.51,189.85 441.31,189.85 441.31,197.62 438.5,197.62 438.5,189.85 
			436.28,189.85 		"/>
		<rect x="444.52" y="187.35" class="st4" width="2.82" height="10.27"/>
		<polygon class="st4" points="456.53,187.35 453.71,197.62 451.02,197.62 448.25,187.35 451.08,187.35 452.37,193.31 
			453.67,187.35 		"/>
		<path class="st4" d="M460.82,196.13h-2.03l-0.29,1.49h-2.97l2.8-10.27h2.94l2.82,10.27h-2.97L460.82,196.13z M459.27,193.76h1.08
			l-0.55-2.73L459.27,193.76z"/>
		<polygon class="st4" points="471.07,197.62 464.9,197.62 464.9,187.35 467.71,187.35 467.71,195.13 471.07,195.13 		"/>
	</g>
</g>
<g>
	<g>
		<path d="M168.53,184.99h4.39v8.33c0,1.13,0.57,1.93,1.79,1.93c1.19,0,1.79-0.8,1.79-1.93v-8.33h4.37v8.31c0,3.82-2.4,5.6-6.16,5.6
			s-6.18-1.77-6.18-5.6V184.99z"/>
		<path d="M182.02,187.82h4.06l0.18,1.13c0.72-0.72,1.76-1.37,3-1.37c2.46,0,3.34,1.37,3.34,3.98v7.08h-4.23v-7.22
			c0-0.51-0.23-0.86-0.8-0.86c-0.41,0-0.92,0.29-1.29,0.78v7.29h-4.25V187.82z"/>
		<path d="M194.17,197.85c-0.43-0.53-0.58-1.07-0.58-1.56c0-0.7,0.37-1.44,1.15-1.89c-0.92-0.66-1.52-1.66-1.52-2.93
			c0-2.34,2.07-3.9,4.91-3.9c1.29,0,2.4,0.33,3.24,0.9c0.76-0.49,1.83-0.82,3.24-0.82v2.36c-0.66,0-1.27,0.06-1.85,0.2
			c0.16,0.39,0.23,0.82,0.23,1.27c0,2.52-2.34,3.9-4.86,3.9c-0.49,0-0.96-0.04-1.4-0.14c-0.16,0.08-0.23,0.23-0.23,0.39
			c0,0.35,0.41,0.51,2.26,0.51c3.71,0.06,5.54,1.13,5.54,3.3c0,2.15-1.81,3.32-5.87,3.32c-3.41,0-5.66-0.84-5.66-2.77
			C192.77,199,193.22,198.35,194.17,197.85z M196.8,199.21c-0.16,0.19-0.21,0.41-0.21,0.64c0,0.43,0.39,0.64,1.85,0.64
			c1.64,0,2.09-0.16,2.09-0.55c0-0.37-0.21-0.55-1.97-0.57C197.9,199.37,197.31,199.31,196.8,199.21z M199.11,191.49
			c0-0.84-0.33-1.38-0.98-1.38c-0.57,0-0.94,0.55-0.94,1.38c0,0.8,0.37,1.35,0.94,1.35C198.77,192.83,199.11,192.29,199.11,191.49z"
			/>
		<path d="M208.97,184.99h4.8l4.64,13.65h-4.66l-0.47-1.66h-3.84l-0.45,1.66h-4.68L208.97,184.99z M210.32,193.83h2.07l-1.01-3.67
			h-0.04L210.32,193.83z"/>
		<path d="M224.46,191.94v-0.35c0-0.58-0.37-0.78-0.96-0.78c-0.92,0-1.83,0.31-3.51,1.09l-1.4-2.91c1.79-0.94,3.61-1.42,5.17-1.42
			c3.55,0,4.9,1.66,4.9,4.19v3.71c0,0.35,0.21,0.53,0.62,0.53v2.73c-2.55,0-3.59-0.19-4.41-1.44c-0.97,1.13-1.87,1.62-3.39,1.62
			c-1.79,0-3.12-1.13-3.12-2.87C218.35,194.22,219.41,192.44,224.46,191.94z M223.33,196.09c0.47,0,0.86-0.25,1.13-0.6v-1.54
			c-1.27,0.12-1.91,0.66-1.91,1.4C222.55,195.74,222.86,196.09,223.33,196.09z"/>
		<path d="M229.92,183.92h4.27v14.72h-4.27V183.92z"/>
		<path d="M235.28,183.92h4.27v4.99c0.66-0.86,1.72-1.31,2.73-1.31c2.34,0,3.94,1.76,3.94,5.58c0,3.8-1.72,5.68-3.76,5.68
			c-1.42,0-2.34-0.53-3.18-1.38l-0.25,1.17h-3.74V183.92z M240.78,195.78c0.92,0,1.25-1.21,1.25-2.59c0-1.56-0.33-2.5-1.25-2.5
			c-0.51,0-0.92,0.25-1.23,0.57v4.02C239.9,195.6,240.29,195.78,240.78,195.78z"/>
		<path d="M252.26,187.57c3.2,0,5.64,2.28,5.64,5.6c0,3.55-2.28,5.73-5.64,5.73c-3.39,0-5.68-2.18-5.68-5.73
			C246.59,189.85,249.03,187.57,252.26,187.57z M252.26,195.9c0.96,0,1.38-1.03,1.38-2.71c0-1.58-0.49-2.61-1.38-2.61
			c-0.94,0-1.42,1.03-1.42,2.61C250.84,194.86,251.27,195.9,252.26,195.9z"/>
		<path d="M258.62,187.82h3.98l0.25,1.42c0.84-1.52,1.89-1.77,2.95-1.77c0.33,0,0.74,0.06,1.07,0.12l-0.43,3.86
			c-0.33-0.1-0.9-0.21-1.58-0.21c-0.94,0-1.54,0.51-1.99,1.4v6.01h-4.25V187.82z"/>
		<path d="M267.85,197.85c-0.43-0.53-0.59-1.07-0.59-1.56c0-0.7,0.37-1.44,1.15-1.89c-0.92-0.66-1.52-1.66-1.52-2.93
			c0-2.34,2.07-3.9,4.92-3.9c1.29,0,2.4,0.33,3.24,0.9c0.76-0.49,1.83-0.82,3.24-0.82v2.36c-0.66,0-1.27,0.06-1.85,0.2
			c0.16,0.39,0.23,0.82,0.23,1.27c0,2.52-2.34,3.9-4.86,3.9c-0.49,0-0.96-0.04-1.4-0.14c-0.16,0.08-0.23,0.23-0.23,0.39
			c0,0.35,0.41,0.51,2.26,0.51c3.71,0.06,5.54,1.13,5.54,3.3c0,2.15-1.81,3.32-5.87,3.32c-3.41,0-5.66-0.84-5.66-2.77
			C266.44,199,266.89,198.35,267.85,197.85z M270.48,199.21c-0.16,0.19-0.21,0.41-0.21,0.64c0,0.43,0.39,0.64,1.85,0.64
			c1.64,0,2.09-0.16,2.09-0.55c0-0.37-0.21-0.55-1.97-0.57C271.57,199.37,270.99,199.31,270.48,199.21z M272.78,191.49
			c0-0.84-0.33-1.38-0.98-1.38c-0.57,0-0.94,0.55-0.94,1.38c0,0.8,0.37,1.35,0.94,1.35C272.45,192.83,272.78,192.29,272.78,191.49z"
			/>
	</g>
	<g>
		<g>
			<path d="M207.63,202.52l-0.42,1.13h-0.54l1.38-3.61h0.63l1.38,3.61h-0.56l-0.43-1.13H207.63z M208.96,202.16l-0.4-1.04
				c-0.09-0.24-0.15-0.45-0.21-0.66h-0.01c-0.06,0.21-0.13,0.43-0.2,0.65l-0.4,1.04H208.96z"/>
			<path d="M212.27,203.66l-0.04-0.33h-0.02c-0.16,0.2-0.48,0.39-0.89,0.39c-0.59,0-0.89-0.37-0.89-0.74c0-0.63,0.63-0.97,1.75-0.96
				v-0.05c0-0.21-0.07-0.6-0.66-0.6c-0.27,0-0.55,0.07-0.76,0.19l-0.12-0.31c0.24-0.14,0.59-0.23,0.96-0.23
				c0.89,0,1.11,0.54,1.11,1.06v0.97c0,0.22,0.01,0.44,0.05,0.62H212.27z M212.19,202.33c-0.58-0.01-1.23,0.08-1.23,0.58
				c0,0.31,0.23,0.45,0.5,0.45c0.38,0,0.62-0.21,0.7-0.43c0.02-0.05,0.03-0.1,0.03-0.15V202.33z"/>
			<path d="M213.55,199.86h0.53v3.8h-0.53V199.86z"/>
			<path d="M214.94,203.66c0.01-0.18,0.02-0.44,0.02-0.67v-3.13h0.52v1.63h0.01c0.19-0.29,0.52-0.48,0.99-0.48
				c0.72,0,1.23,0.53,1.23,1.32c0,0.93-0.66,1.39-1.3,1.39c-0.42,0-0.76-0.14-0.97-0.49h-0.02l-0.02,0.43H214.94z M215.49,202.62
				c0,0.06,0.01,0.12,0.02,0.17c0.1,0.33,0.41,0.55,0.79,0.55c0.55,0,0.88-0.4,0.88-1c0-0.52-0.3-0.96-0.87-0.96
				c-0.36,0-0.7,0.22-0.81,0.58c-0.01,0.05-0.03,0.12-0.03,0.19V202.62z"/>
			<path d="M221.01,202.34c0,0.96-0.75,1.38-1.45,1.38c-0.79,0-1.39-0.51-1.39-1.33c0-0.87,0.64-1.38,1.44-1.38
				C220.45,201.01,221.01,201.55,221.01,202.34z M218.7,202.37c0,0.57,0.37,1,0.88,1c0.5,0,0.88-0.42,0.88-1.01
				c0-0.44-0.25-1-0.87-1C218.97,201.36,218.7,201.87,218.7,202.37z"/>
			<path d="M221.67,201.87c0-0.31-0.01-0.57-0.02-0.81h0.46l0.02,0.51h0.02c0.13-0.35,0.45-0.57,0.81-0.57
				c0.06,0,0.1,0.01,0.15,0.02v0.44c-0.05-0.01-0.11-0.02-0.18-0.02c-0.37,0-0.64,0.25-0.71,0.6c-0.01,0.06-0.02,0.14-0.02,0.22
				v1.38h-0.52V201.87z"/>
			<path d="M226.09,201.06c-0.01,0.19-0.02,0.4-0.02,0.71v1.5c0,0.59-0.13,0.96-0.42,1.18c-0.28,0.23-0.69,0.31-1.06,0.31
				c-0.35,0-0.73-0.08-0.97-0.21l0.13-0.36c0.19,0.11,0.49,0.2,0.85,0.2c0.54,0,0.94-0.25,0.94-0.9v-0.29h-0.01
				c-0.16,0.24-0.47,0.43-0.93,0.43c-0.72,0-1.24-0.55-1.24-1.26c0-0.88,0.64-1.38,1.31-1.38c0.5,0,0.78,0.24,0.91,0.45h0.01
				l0.02-0.39H226.09z M225.55,202.09c0-0.08-0.01-0.15-0.03-0.21c-0.1-0.27-0.36-0.5-0.74-0.5c-0.5,0-0.87,0.38-0.87,0.98
				c0,0.51,0.29,0.93,0.86,0.93c0.33,0,0.62-0.18,0.73-0.48c0.03-0.08,0.04-0.17,0.04-0.25V202.09z"/>
			<path d="M228.75,200.05v2.13c0,0.81,0.4,1.15,0.94,1.15c0.6,0,0.99-0.35,0.99-1.15v-2.13h0.53v2.1c0,1.11-0.66,1.56-1.53,1.56
				c-0.83,0-1.46-0.42-1.46-1.54v-2.12H228.75z"/>
			<path d="M232.09,201.77c0-0.27-0.01-0.49-0.02-0.7h0.47l0.03,0.43h0.01c0.14-0.25,0.48-0.49,0.96-0.49c0.4,0,1.03,0.21,1.03,1.1
				v1.55h-0.53v-1.49c0-0.42-0.17-0.76-0.67-0.76c-0.35,0-0.62,0.22-0.71,0.48c-0.02,0.06-0.04,0.14-0.04,0.22v1.56h-0.53V201.77z"
				/>
			<path d="M237.93,201.06c-0.01,0.19-0.02,0.4-0.02,0.71v1.5c0,0.59-0.13,0.96-0.42,1.18c-0.28,0.23-0.69,0.31-1.06,0.31
				c-0.35,0-0.73-0.08-0.97-0.21l0.13-0.36c0.19,0.11,0.49,0.2,0.85,0.2c0.54,0,0.94-0.25,0.94-0.9v-0.29h-0.01
				c-0.16,0.24-0.47,0.43-0.93,0.43c-0.72,0-1.24-0.55-1.24-1.26c0-0.88,0.64-1.38,1.31-1.38c0.5,0,0.78,0.24,0.91,0.45h0.01
				l0.02-0.39H237.93z M237.38,202.09c0-0.08-0.01-0.15-0.03-0.21c-0.1-0.27-0.36-0.5-0.74-0.5c-0.5,0-0.87,0.38-0.87,0.98
				c0,0.51,0.29,0.93,0.86,0.93c0.33,0,0.62-0.18,0.73-0.48c0.03-0.08,0.04-0.17,0.04-0.25V202.09z"/>
			<path d="M241.29,199.86v3.13c0,0.23,0.01,0.49,0.02,0.67h-0.47l-0.02-0.45h-0.01c-0.16,0.29-0.52,0.51-0.99,0.51
				c-0.7,0-1.24-0.53-1.24-1.32c-0.01-0.86,0.59-1.39,1.3-1.39c0.44,0,0.75,0.19,0.88,0.4h0.01v-1.55H241.29z M240.76,202.12
				c0-0.06-0.01-0.14-0.02-0.2c-0.08-0.3-0.37-0.55-0.76-0.55c-0.55,0-0.87,0.43-0.87,1c0,0.52,0.29,0.96,0.86,0.96
				c0.35,0,0.68-0.21,0.78-0.56c0.02-0.06,0.02-0.13,0.02-0.2V202.12z"/>
			<path d="M244.8,202.34c0,0.96-0.75,1.38-1.45,1.38c-0.79,0-1.39-0.51-1.39-1.33c0-0.87,0.64-1.38,1.44-1.38
				C244.23,201.01,244.8,201.55,244.8,202.34z M242.49,202.37c0,0.57,0.37,1,0.88,1c0.5,0,0.88-0.42,0.88-1.01c0-0.44-0.25-1-0.87-1
				S242.49,201.87,242.49,202.37z"/>
			<path d="M245.46,201.77c0-0.27-0.01-0.49-0.02-0.7h0.46l0.02,0.42h0.02c0.16-0.25,0.43-0.48,0.91-0.48c0.4,0,0.7,0.21,0.82,0.52
				h0.01c0.09-0.14,0.21-0.26,0.33-0.34c0.17-0.12,0.37-0.18,0.64-0.18c0.38,0,0.96,0.22,0.96,1.12v1.53h-0.52v-1.47
				c0-0.5-0.2-0.8-0.63-0.8c-0.3,0-0.54,0.2-0.63,0.43c-0.02,0.06-0.04,0.15-0.04,0.24v1.6h-0.52v-1.55c0-0.41-0.21-0.71-0.61-0.71
				c-0.33,0-0.57,0.24-0.66,0.47c-0.03,0.07-0.04,0.15-0.04,0.23v1.56h-0.52V201.77z"/>
			<path d="M250.39,203.17c0.16,0.09,0.43,0.19,0.7,0.19c0.38,0,0.56-0.17,0.56-0.39c0-0.22-0.15-0.35-0.54-0.48
				c-0.52-0.17-0.77-0.42-0.77-0.73c0-0.42,0.38-0.76,1-0.76c0.29,0,0.55,0.07,0.72,0.16l-0.13,0.34c-0.11-0.06-0.33-0.15-0.6-0.15
				c-0.31,0-0.49,0.16-0.49,0.35c0,0.21,0.17,0.31,0.55,0.44c0.5,0.17,0.76,0.4,0.76,0.78c0,0.45-0.4,0.78-1.09,0.78
				c-0.32,0-0.61-0.07-0.82-0.18L250.39,203.17z"/>
			<path d="M252.76,203.17c0.16,0.09,0.43,0.19,0.7,0.19c0.38,0,0.56-0.17,0.56-0.39c0-0.22-0.15-0.35-0.54-0.48
				c-0.52-0.17-0.77-0.42-0.77-0.73c0-0.42,0.38-0.76,1-0.76c0.29,0,0.55,0.07,0.72,0.16l-0.13,0.34c-0.11-0.06-0.33-0.15-0.6-0.15
				c-0.31,0-0.49,0.16-0.49,0.35c0,0.21,0.17,0.31,0.55,0.44c0.5,0.17,0.76,0.4,0.76,0.78c0,0.45-0.4,0.78-1.09,0.78
				c-0.32,0-0.61-0.07-0.82-0.18L252.76,203.17z"/>
			<path d="M255.74,202.25h0.01c0.07-0.09,0.17-0.2,0.26-0.29l0.85-0.89h0.64l-1.12,1.06l1.28,1.53h-0.64l-1-1.24l-0.27,0.27v0.97
				h-0.52v-3.8h0.52V202.25z"/>
			<path d="M260.66,202.34c0,0.96-0.75,1.38-1.45,1.38c-0.79,0-1.39-0.51-1.39-1.33c0-0.87,0.64-1.38,1.44-1.38
				C260.1,201.01,260.66,201.55,260.66,202.34z M258.35,202.37c0,0.57,0.37,1,0.88,1c0.5,0,0.88-0.42,0.88-1.01
				c0-0.44-0.25-1-0.87-1S258.35,201.87,258.35,202.37z"/>
			<path d="M261.32,199.86h0.53v3.8h-0.53V199.86z"/>
			<path d="M263.03,202.45c0.01,0.64,0.47,0.9,1,0.9c0.38,0,0.61-0.06,0.81-0.13l0.09,0.34c-0.19,0.07-0.5,0.16-0.97,0.16
				c-0.9,0-1.43-0.53-1.43-1.31c0-0.78,0.52-1.4,1.36-1.4c0.95,0,1.2,0.74,1.2,1.22c0,0.1-0.01,0.17-0.02,0.22H263.03z
				 M264.58,202.11c0.01-0.3-0.14-0.77-0.73-0.77c-0.54,0-0.77,0.44-0.81,0.77H264.58z"/>
		</g>
	</g>
</g>
<g>
	<g>
		<g>
			<path d="M580.87,175.65h3.05l3.46,9.92h-2.93l-0.45-1.47h-3.2l-0.44,1.47h-2.95L580.87,175.65z M581.4,182.06h1.98l-0.98-3.24
				h-0.03L581.4,182.06z"/>
			<path d="M596.19,174.87h2.68v10.7h-2.68V174.87z"/>
			<path d="M600.17,174.87h2.68v3.75c0.52-0.62,1.29-0.98,2.07-0.98c1.73,0,2.89,1.29,2.89,3.98c0,2.72-1.22,4.09-2.81,4.09
				c-1.02,0-1.71-0.4-2.31-1.02l-0.17,0.86h-2.35V174.87z M604.02,183.76c0.81,0,1.15-0.92,1.15-2.14c0-1.28-0.34-2.01-1.15-2.01
				c-0.47,0-0.85,0.23-1.18,0.57v3.05C603.2,183.59,603.56,183.76,604.02,183.76z"/>
			<path d="M612.48,177.63c2.27,0,3.98,1.61,3.98,3.99c0,2.55-1.62,4.12-3.98,4.12c-2.39,0-4-1.57-4-4.12
				C608.48,179.24,610.2,177.63,612.48,177.63z M612.48,183.82c0.86,0,1.3-0.85,1.3-2.18c0-1.26-0.5-2.08-1.3-2.08
				c-0.82,0-1.32,0.82-1.32,2.08C611.16,182.97,611.6,183.82,612.48,183.82z"/>
			<path d="M617.42,177.81h2.49l0.16,1.09c0.6-1.08,1.35-1.33,2.15-1.33c0.28,0,0.6,0.04,0.85,0.11l-0.31,2.42
				c-0.26-0.09-0.62-0.16-1.09-0.16c-0.72,0-1.2,0.41-1.59,1.16v4.45h-2.66V177.81z"/>
			<path d="M624.14,184.98c-0.31-0.35-0.44-0.74-0.44-1.09c0-0.52,0.28-1.02,0.82-1.33c-0.67-0.48-1.11-1.19-1.11-2.13
				c0-1.69,1.47-2.8,3.46-2.8c0.89,0,1.67,0.24,2.27,0.65c0.54-0.37,1.25-0.62,2.27-0.62v1.57c-0.5,0-0.93,0.04-1.35,0.14
				c0.14,0.31,0.23,0.68,0.23,1.06c0,1.81-1.66,2.82-3.41,2.82c-0.38,0-0.75-0.04-1.09-0.13c-0.14,0.08-0.21,0.21-0.21,0.34
				c0,0.31,0.35,0.43,1.81,0.45c2.51,0.06,3.8,0.77,3.8,2.3c0,1.49-1.28,2.32-4.11,2.32c-2.44,0-3.98-0.64-3.98-2.01
				C623.09,185.83,623.45,185.35,624.14,184.98z M625.8,185.83c-0.18,0.16-0.28,0.37-0.28,0.62c0,0.4,0.38,0.59,1.56,0.59
				c1.28,0,1.73-0.16,1.73-0.52c0-0.37-0.27-0.51-1.6-0.54C626.66,185.97,626.2,185.92,625.8,185.83z M627.83,180.45
				c0-0.71-0.35-1.18-0.95-1.18c-0.57,0-0.95,0.47-0.95,1.18c0,0.69,0.38,1.15,0.95,1.15C627.47,181.6,627.83,181.14,627.83,180.45z
				"/>
			<path d="M589.92,189.69c2.27,0,3.98,1.61,3.98,4c0,2.55-1.62,4.12-3.98,4.12c-2.39,0-3.99-1.57-3.99-4.12
				C585.92,191.31,587.64,189.69,589.92,189.69z M589.92,195.88c0.86,0,1.3-0.85,1.3-2.18c0-1.26-0.5-2.08-1.3-2.08
				c-0.82,0-1.32,0.82-1.32,2.08C588.6,195.03,589.04,195.88,589.92,195.88z"/>
			<path d="M594.85,189.88h2.55l0.1,0.75c0.59-0.54,1.45-0.94,2.15-0.94c1.02,0,1.63,0.4,1.96,1.05c0.77-0.69,1.53-1.05,2.44-1.05
				c1.6,0,2.35,1.05,2.35,2.78v5.16h-2.66v-5.23c0-0.52-0.23-0.79-0.64-0.79c-0.38,0-0.78,0.23-1.15,0.62c0,0.16,0.01,0.33,0.01,0.5
				v4.9h-2.66v-5.23c0-0.54-0.21-0.79-0.64-0.79c-0.4,0-0.86,0.27-1.15,0.68v5.34h-2.66V189.88z"/>
			<path d="M607.71,189.88h2.55l0.1,0.75c0.6-0.54,1.45-0.94,2.15-0.94c1.02,0,1.63,0.4,1.95,1.05c0.77-0.69,1.53-1.05,2.44-1.05
				c1.6,0,2.35,1.05,2.35,2.78v5.16h-2.66v-5.23c0-0.52-0.23-0.79-0.64-0.79c-0.38,0-0.78,0.23-1.15,0.62c0,0.16,0.02,0.33,0.02,0.5
				v4.9h-2.66v-5.23c0-0.54-0.21-0.79-0.64-0.79c-0.4,0-0.86,0.27-1.15,0.68v5.34h-2.66V189.88z"/>
			<path d="M620.5,189.88h2.66v5.16c0,0.5,0.2,0.85,0.74,0.85c0.47,0,0.88-0.27,1.25-0.69v-5.31h2.66v7.75h-2.49l-0.14-0.85
				c-0.51,0.55-1.36,1.03-2.25,1.03c-1.74,0-2.42-1.02-2.42-2.85V189.88z"/>
			<path d="M629.11,189.88h2.54l0.11,0.84c0.54-0.54,1.32-1.02,2.24-1.02c1.76,0,2.42,1.02,2.42,2.83v5.1h-2.66v-5.17
				c0-0.51-0.21-0.85-0.75-0.85c-0.44,0-0.88,0.26-1.23,0.71v5.31h-2.66V189.88z"/>
			<path d="M641.31,189.69c2.24,0,3.66,1.37,3.66,3.53c0,0.38-0.04,0.84-0.1,1.13h-4.83c0.14,0.96,0.62,1.39,1.52,1.39
				c0.74,0,1.43-0.23,2.08-0.61l1.08,1.6c-1.02,0.75-2.18,1.08-3.41,1.08c-2.21,0-3.97-1.49-3.97-4.08
				C637.33,191.19,639.17,189.69,641.31,189.69z M640.06,192.98h2.42c0-0.82-0.31-1.44-1.09-1.44
				C640.77,191.53,640.23,191.97,640.06,192.98z"/>
			<path d="M594.7,183.4v-2.9c0-1.71-0.92-2.86-3.33-2.86c-0.99,0-2.13,0.29-3.22,0.81c-0.04,0.02-0.36,0.18-0.4,0.2l0.69,1.97
				c0.05-0.02,0.38-0.19,0.43-0.21c1.02-0.48,1.69-0.71,2.36-0.71c0.54,0,0.84,0.23,0.84,0.71v0.43c-3.32,0.3-4.41,1.42-4.41,2.88
				c0,1.23,0.95,2.05,2.25,2.05c1.08,0,1.76-0.37,2.42-1.13c0.54,0.82,1.22,0.99,2.89,0.99v-1.74
				C594.9,183.86,594.7,183.71,594.7,183.4z M592.06,183.41c-0.24,0.3-0.62,0.52-1.08,0.52c-0.43,0-0.69-0.28-0.69-0.64
				c0-0.72,0.74-1.08,1.77-1.15V183.41z"/>
		</g>
		<g>
			<path d="M577.72,187.71h2.74v3.83h-0.03l2.74-3.83h2.95l-3.36,4.74v0.03l3.66,5.15h-3.21l-2.78-4.02h0.03v4.02h-2.74V187.71z"/>
		</g>
	</g>
	<g>
		<g>
			<g>
				<path d="M554.07,186.82c-0.33,0-0.59,0.25-0.61,0.57l0,4.24c0.35,0.09,0.71,0.15,1.09,0.15c0.05,0,0.1,0,0.15-0.01v-4.38
					C554.66,187.07,554.4,186.82,554.07,186.82z"/>
			</g>
			<g>
				<g>
					<path d="M559.16,186.96c-0.03-0.58-0.51-1.04-1.1-1.04c-0.59,0-1.07,0.46-1.1,1.04l0,0.06v4.22c0.36-0.09,0.72-0.16,1.1-0.16
						c0.38,0,0.74,0.07,1.1,0.16v-4.22L559.16,186.96z"/>
				</g>
				<g>
					<path d="M558.06,171.31c-8.47,0-15.33,6.86-15.33,15.33c0,8.47,6.86,15.33,15.33,15.33c8.47,0,15.33-6.86,15.33-15.33
						C573.39,178.18,566.53,171.31,558.06,171.31z M563.35,177.36c0.07,0.22,0.54,0.2,0.53,0.59c0,0.1-0.05,0.21-0.14,0.28h-0.79
						c-0.09-0.07-0.14-0.18-0.14-0.28C562.82,177.54,563.29,177.58,563.35,177.36z M561.29,177.13c0.08,0.27,0.67,0.25,0.67,0.75
						c0,0.13-0.06,0.26-0.17,0.36h-1c-0.11-0.09-0.17-0.23-0.17-0.36C560.61,177.36,561.21,177.41,561.29,177.13z M557.66,175.88
						c-0.04-0.07-0.06-0.15-0.06-0.23c0-0.26,0.21-0.47,0.47-0.47c0.26,0,0.47,0.21,0.47,0.47c0,0.09-0.02,0.17-0.06,0.23
						c0.89,0.15,1.55,0.76,1.55,1.48c0,0.38-0.19,0.77-0.5,1.03h-2.91c-0.31-0.26-0.5-0.65-0.5-1.03
						C556.11,176.64,556.77,176.02,557.66,175.88z M559.8,182.29h-0.88l-0.15-2.28c-0.03-0.38-0.34-0.67-0.71-0.67
						c-0.38,0-0.68,0.29-0.71,0.66l-0.15,2.28h-0.88l0.28-3.51h2.92L559.8,182.29z M554.84,177.13c0.08,0.27,0.67,0.22,0.67,0.75
						c0,0.13-0.06,0.26-0.17,0.36h-1c-0.11-0.09-0.17-0.23-0.17-0.36C554.16,177.38,554.76,177.41,554.84,177.13z M552.79,177.36
						c0.07,0.22,0.53,0.18,0.53,0.59c0,0.1-0.05,0.21-0.13,0.28h-0.79c-0.09-0.07-0.14-0.18-0.14-0.28
						C552.26,177.56,552.73,177.58,552.79,177.36z M548.8,188.64c-1.06,0.39-2.23-0.16-2.62-1.22c-0.38-1.06,0.16-2.23,1.22-2.62
						c0.55-0.2,1.14-0.15,1.63,0.1c-0.19-0.01-0.38,0.01-0.56,0.08c-0.71,0.26-1.07,1.04-0.81,1.75c0.26,0.71,1.04,1.07,1.75,0.81
						c0.33-0.12,0.59-0.36,0.74-0.65C550.07,187.66,549.57,188.36,548.8,188.64z M552.34,179.18h0.06v-0.6h0.79v0.6h1.15v-0.6h0.98
						v0.6h0.84l-0.28,3.11h-5.63L552.34,179.18z M558.72,195.88c-0.41,0.02-0.67,0.01-0.67,0.01s-0.26,0.01-0.66-0.01
						c-0.88-0.05-1.76-0.22-2.6-0.52c1.11-0.09,2.11-0.69,3.27-0.69c1.15,0,2.15,0.6,3.26,0.69
						C560.48,195.66,559.6,195.83,558.72,195.88z M564.35,193.29c-0.32,0.39-0.67,0.73-1.04,1.02c-0.56,0.16-1.12,0.33-1.72,0.33
						c-1.24,0-2.31-0.7-3.52-0.7c-1.22,0-2.28,0.7-3.52,0.7c-0.61,0-1.18-0.16-1.74-0.33c-0.37-0.29-0.72-0.62-1.04-1.01
						c-0.09-0.12-0.18-0.24-0.27-0.36c1.04,0.13,1.99,0.66,3.04,0.65c1.22,0,2.28-0.7,3.53-0.7c1.24,0,2.3,0.7,3.52,0.7
						c1.05,0,1.99-0.52,3.03-0.65C564.54,193.05,564.45,193.17,564.35,193.29z M565.64,183.62v0.97h-0.01
						c-0.73,0.64-0.93,1.5-0.95,2.56v3.96c0.13-0.02,0.27-0.03,0.41-0.03c0.12,0,0.23,0,0.35,0.01c-0.1,0.36-0.23,0.71-0.39,1.04
						c-1.2,0.02-2.25,0.69-3.47,0.68c-1.24,0-2.31-0.7-3.52-0.7c-1.22,0-2.28,0.7-3.52,0.7c-1.22,0-2.28-0.67-3.48-0.68
						c-0.16-0.33-0.28-0.69-0.39-1.04c0.12-0.01,0.24-0.01,0.36-0.01c0.14,0,0.27,0.01,0.41,0.02v-3.96
						c-0.01-1.07-0.22-1.92-0.95-2.56h-0.01v-0.97v-0.89h1.47v0.89h1.27v-0.89h1.47v0.89h1.27v-0.89h1.47v0.89h0.64h0.63v-0.89h1.47
						v0.89h1.27v-0.89h1.47v0.89h1.27v-0.89h1.47V183.62z M560.24,182.29l-0.28-3.11h0.83v-0.6h0.97v0.6h1.18v-0.6h0.79v0.6h0.04
						l2.09,3.11H560.24z M568.54,187.59l-0.56,1.42l-0.56-1.42l-1.51,0.23l0.96-1.2l-0.96-1.2l1.51,0.23l0.56-1.42l0.56,1.42
						l1.52-0.23l-0.95,1.2l0.95,1.2L568.54,187.59z"/>
				</g>
				<g>
					<path d="M562.06,186.82c-0.33,0-0.59,0.25-0.62,0.58v4.38c0.05,0,0.09,0.01,0.14,0.01c0.38,0,0.74-0.06,1.1-0.16l0-4.24
						C562.66,187.07,562.39,186.82,562.06,186.82z"/>
					<g>
						<path d="M562.06,185.61c-0.58,0-1.11,0.28-1.43,0.71c-0.28-1.16-1.32-2.01-2.56-2.01c-1.24,0-2.28,0.86-2.56,2.01
							c-0.33-0.43-0.85-0.71-1.43-0.71c-0.97,0-1.76,0.76-1.8,1.72v3.96c0.15,0.04,0.29,0.08,0.44,0.13v-2.83v-1.25
							c0.03-0.72,0.63-1.3,1.36-1.3c0.72,0,1.31,0.56,1.36,1.27v0.21l0,1.08l-0.01,3.08c0.15-0.03,0.29-0.07,0.44-0.11l0.01-4.03
							c0-0.04,0-0.08,0-0.12c0-0.04,0-0.07,0-0.11l0-0.38c0.01-1.2,0.99-2.17,2.19-2.17s2.18,0.97,2.19,2.17v0.4
							c0,0.03,0,0.06,0,0.09c0,0.03,0,0.06,0,0.09l0,4.06c0.15,0.04,0.29,0.08,0.44,0.11l0-3.08v-1.1v-0.16
							c0.04-0.72,0.63-1.28,1.36-1.28s1.33,0.57,1.36,1.3l0,1.24v2.83c0.15-0.04,0.29-0.09,0.44-0.13l0-3.96
							C563.81,186.37,563.02,185.61,562.06,185.61z"/>
					</g>
				</g>
			</g>
		</g>
	</g>
</g>
</svg>
